<svg preserveAspectRatio="none" width="100%" height="100%" overflow="visible" style="display: block;" viewBox="0 0 15.0371 9.52341" fill="none" xmlns="http://www.w3.org/2000/svg">
<g id="Group">
<path id="Vector" d="M7.51859 5.97268C8.20466 5.97268 8.76083 5.4305 8.76083 4.76169C8.76083 4.09288 8.20466 3.55071 7.51859 3.55071C6.83252 3.55071 6.27635 4.09288 6.27635 4.76169C6.27635 5.4305 6.83252 5.97268 7.51859 5.97268Z" stroke="var(--stroke-0, #9B9A8C)" stroke-width="0.642857" stroke-linecap="round" stroke-linejoin="round"/>
<path id="Vector_2" d="M10.4172 2.74336C10.8876 3.31612 11.1439 4.02796 11.1439 4.76167C11.1439 5.49538 10.8876 6.20722 10.4172 6.77998" stroke="var(--stroke-0, #9B9A8C)" stroke-width="0.642857" stroke-linecap="round" stroke-linejoin="round"/>
<path id="Vector_3" d="M4.62011 2.74336C4.1497 3.31612 3.89339 4.02796 3.89339 4.76167C3.89339 5.49538 4.1497 6.20722 4.62011 6.77998" stroke="var(--stroke-0, #9B9A8C)" stroke-width="0.642857" stroke-linecap="round" stroke-linejoin="round"/>
<path id="Vector_4" d="M12.9016 0.321429C14.0665 1.52092 14.7157 3.10993 14.7157 4.7617C14.7157 6.41348 14.0665 8.00248 12.9016 9.20198" stroke="var(--stroke-0, #9B9A8C)" stroke-width="0.642857" stroke-linecap="round" stroke-linejoin="round"/>
<path id="Vector_5" d="M2.13553 0.321429C0.970626 1.52092 0.321429 3.10993 0.321429 4.7617C0.321429 6.41348 0.970626 8.00248 2.13553 9.20198" stroke="var(--stroke-0, #9B9A8C)" stroke-width="0.642857" stroke-linecap="round" stroke-linejoin="round"/>
</g>
</svg>
