<svg preserveAspectRatio="none" width="100%" height="100%" overflow="visible" style="display: block;" viewBox="0 0 30 30" fill="none" xmlns="http://www.w3.org/2000/svg">
<g id="Group">
<rect id="Rectangle" width="30" height="30" rx="5" fill="var(--fill-0, #068071)"/>
<path id="Vector" fill-rule="evenodd" clip-rule="evenodd" d="M16.3927 5.71426L17.1338 6.26572L17.7571 8.34328L19.6669 7.31493L20.5809 7.44907L22.5507 9.41887L22.6849 10.3329L21.6565 12.2427L23.7341 12.8659L24.2855 13.6071V16.3928L23.7341 17.134L21.6565 17.7573L22.6849 19.6671L22.5507 20.5811L20.5809 22.5509L19.6669 22.685L17.7571 21.6567L17.1338 23.7342L16.3927 24.2857H13.6069L12.8657 23.7342L12.2425 21.6567L10.3327 22.685L9.41868 22.5508L7.44887 20.5811L7.31474 19.6671L8.34308 17.7572L6.26556 17.134L5.71409 16.3928V13.6071L6.26556 12.8659L8.34308 12.2427L7.31474 10.3329L7.44887 9.41888L9.41868 7.44908L10.3327 7.31494L12.2425 8.34328L12.8657 6.26572L13.6069 5.71426H16.3927ZM16.5792 9.80291L15.8169 7.26188H14.1827L13.4204 9.80291L13.065 9.93885C12.972 9.97443 12.8803 10.0125 12.7898 10.053L12.4422 10.2085L10.1059 8.95052L8.95037 10.1061L10.2084 12.4424L10.0528 12.79C10.0123 12.8805 9.97428 12.9722 9.93868 13.0651L9.80269 13.4206L7.26171 14.1828V15.8171L9.80269 16.5794L9.93868 16.9348C9.97428 17.0278 10.0123 17.1195 10.0528 17.2099L10.2084 17.5576L8.95037 19.8939L10.1059 21.0494L12.4422 19.7914L12.7898 19.947C12.8803 19.9874 12.972 20.0255 13.065 20.0611L13.4204 20.1971L14.1827 22.7381H15.8169L16.5792 20.1971L16.9346 20.0611C17.0276 20.0255 17.1193 19.9874 17.2098 19.947L17.5574 19.7914L19.8937 21.0494L21.0493 19.8939L19.7913 17.5576L19.9468 17.21C19.9873 17.1195 20.0254 17.0278 20.0609 16.9348L20.1969 16.5794L22.7379 15.8171V14.1828L20.1969 13.4206L20.0609 13.0651C20.0254 12.9722 19.9873 12.8805 19.9468 12.79L19.7913 12.4424L21.0493 10.1061L19.8937 8.95051L17.5574 10.2085L17.2098 10.053C17.1193 10.0125 17.0276 9.97443 16.9346 9.93885L16.5792 9.80291ZM12.6784 15C12.6784 16.282 13.7178 17.3214 14.9998 17.3214C16.2819 17.3214 17.3212 16.282 17.3212 15C17.3212 13.7179 16.2819 12.6786 14.9998 12.6786C13.7178 12.6786 12.6784 13.7179 12.6784 15ZM11.1308 15C11.1308 17.1368 12.863 18.869 14.9998 18.869C17.1366 18.869 18.8689 17.1368 18.8689 15C18.8689 12.8632 17.1366 11.1309 14.9998 11.1309C12.863 11.1309 11.1308 12.8632 11.1308 15Z" fill="var(--fill-0, #01554B)"/>
</g>
</svg>
