<svg preserveAspectRatio="none" width="100%" height="100%" overflow="visible" style="display: block;" viewBox="0 0 30 30" fill="none" xmlns="http://www.w3.org/2000/svg">
<g id="Group">
<rect id="Rectangle" width="30" height="30" rx="5" fill="var(--fill-0, #068071)"/>
<path id="Vector" d="M7.3456 18.633C8.03794 17.8077 8.98597 16.6386 8.98597 15.4458V11.6478C8.98597 8.37627 11.4818 5.71423 14.6718 5.71423C17.8624 5.71423 20.3387 8.37627 20.3387 11.6478V15.4458C20.3387 16.6183 21.3674 17.7263 22.0194 18.5865C22.6061 19.3588 23.0695 19.9695 22.7562 20.5796C22.4815 21.1165 21.7928 21.1851 21.2238 21.1851H17.8244C17.8232 22.8974 16.4071 24.2857 14.6605 24.2857C12.914 24.2857 11.4967 22.8979 11.4961 21.1851H8.01717C7.65528 21.1851 6.80929 21.1851 6.51799 20.5814C6.22433 19.9707 6.69419 19.4094 7.3456 18.633ZM14.6611 23.0672C15.7219 23.0672 16.5827 22.225 16.5839 21.1857H12.7384C12.7401 22.225 13.5998 23.0672 14.6611 23.0672ZM8.01717 19.9468H21.2244C21.3152 19.9468 21.3911 19.9439 21.4534 19.9399C21.3312 19.7543 21.152 19.517 21.0055 19.3245C20.2829 18.3724 19.0744 17.0277 19.0744 15.4458V11.6478C19.0744 9.0585 17.1641 6.95248 14.6706 6.95248C12.1771 6.95248 10.2478 9.05908 10.2478 11.6478V15.4458C10.2478 17.0818 9.1337 18.4492 8.32033 19.4193C8.18329 19.5828 8.01955 19.7782 7.89199 19.9457C7.92996 19.9468 7.97149 19.9474 8.01599 19.9474L8.01717 19.9468Z" fill="var(--fill-0, #01554B)"/>
</g>
</svg>
