<svg preserveAspectRatio="none" width="100%" height="100%" overflow="visible" style="display: block;" viewBox="0 0 14 14" fill="none" xmlns="http://www.w3.org/2000/svg">
<g id="Frame">
<path id="Vector" d="M5.54709 2.72222C5.76071 2.48354 6.07116 2.33333 6.41667 2.33333C7.06102 2.33333 7.58333 2.85567 7.58333 3.5C7.58333 4.14433 7.06102 4.66667 6.41667 4.66667H1.16668M7.29709 11.2778C7.51071 11.5165 7.82116 11.6667 8.16667 11.6667C8.81102 11.6667 9.33333 11.1443 9.33333 10.5C9.33333 9.85565 8.81102 9.33333 8.16667 9.33333H1.16668M9.77894 4.08333C10.0994 3.72531 10.565 3.5 11.0833 3.5C12.0499 3.5 12.8333 4.2835 12.8333 5.25C12.8333 6.21652 12.0499 7 11.0833 7H1.16667" stroke="var(--stroke-0, white)" stroke-linecap="round" stroke-linejoin="round"/>
</g>
</svg>
