<svg preserveAspectRatio="none" width="100%" height="100%" overflow="visible" style="display: block;" viewBox="0 0 50 50" fill="none" xmlns="http://www.w3.org/2000/svg">
<g id="Group">
<circle id="Ellipse" cx="25" cy="25" r="25" fill="var(--fill-0, #004B42)"/>
<path id="Vector" d="M21.1431 37.1428H14.2382C13.4755 37.1428 12.8572 36.5246 12.8572 35.7618V25.286C12.8572 24.9197 13.0027 24.5684 13.2617 24.3095L24.3095 13.2616C24.8488 12.7223 25.7233 12.7223 26.2625 13.2616L37.3104 24.3095C37.5694 24.5684 37.7149 24.9197 37.7149 25.286V35.7618C37.7149 36.5246 37.0966 37.1428 36.3339 37.1428H29.429M21.1431 37.1428H29.429M21.1431 37.1428V28.8569C21.1431 28.0942 21.7614 27.4759 22.5241 27.4759H28.048C28.8107 27.4759 29.429 28.0942 29.429 28.8569V37.1428" stroke="var(--stroke-0, #E4E4D5)" stroke-width="1.64748" stroke-linejoin="round"/>
</g>
</svg>
