<svg preserveAspectRatio="none" width="100%" height="100%" overflow="visible" style="display: block;" viewBox="0 0 50 50" fill="none" xmlns="http://www.w3.org/2000/svg">
<g id="Group">
<circle id="Ellipse" cx="25" cy="25" r="25" fill="var(--fill-0, white)"/>
<g id="Frame">
<path id="Vector" d="M28.1027 21.1786C29.4784 21.1786 30.5937 22.2939 30.5937 23.6697V30.5881C30.5937 33.9518 27.8669 36.6786 24.5033 36.6786C21.1396 36.6786 18.4128 33.9518 18.4128 30.5881V23.6697C18.4128 22.2939 19.5281 21.1786 20.9039 21.1786H28.1027ZM28.1027 22.8393H20.9039C20.4453 22.8393 20.0736 23.2111 20.0736 23.6697V30.5881C20.0736 33.0346 22.0568 35.0179 24.5033 35.0179C26.9498 35.0179 28.933 33.0346 28.933 30.5881V23.6697C28.933 23.2111 28.5613 22.8393 28.1027 22.8393ZM13.7054 21.1786L18.3071 21.1789C17.8702 21.6343 17.5519 22.2045 17.4019 22.8397L13.7054 22.8393C13.2468 22.8393 12.875 23.2111 12.875 23.6697V29.4808C12.875 31.3159 14.3627 32.8036 16.1978 32.8036C16.6859 32.8036 17.1494 32.6983 17.5669 32.5093C17.7146 33.0512 17.9261 33.5674 18.1913 34.0499C17.5813 34.3162 16.9068 34.4643 16.1978 34.4643C13.4455 34.4643 11.2143 32.2331 11.2143 29.4808V23.6697C11.2143 22.2939 12.3296 21.1786 13.7054 21.1786ZM35.2946 21.1786C36.6704 21.1786 37.7857 22.2939 37.7857 23.6697V29.4822C37.7857 32.2337 35.5551 34.4643 32.8036 34.4643C32.096 34.4643 31.4229 34.3168 30.8133 34.0509L30.875 33.9388C31.112 33.4891 31.3028 33.0112 31.441 32.5115C31.8556 32.6991 32.3174 32.8036 32.8036 32.8036C34.6379 32.8036 36.125 31.3165 36.125 29.4822V23.6697C36.125 23.2111 35.7532 22.8393 35.2946 22.8393L31.6047 22.8397C31.4547 22.2045 31.1364 21.6343 30.6994 21.1789L35.2946 21.1786ZM24.5 12.3215C26.6401 12.3215 28.375 14.0563 28.375 16.1964C28.375 18.3366 26.6401 20.0714 24.5 20.0714C22.3599 20.0714 20.625 18.3366 20.625 16.1964C20.625 14.0563 22.3599 12.3215 24.5 12.3215ZM33.3604 13.4286C35.1948 13.4286 36.6819 14.9156 36.6819 16.75C36.6819 18.5844 35.1948 20.0714 33.3604 20.0714C31.5261 20.0714 30.039 18.5844 30.039 16.75C30.039 14.9156 31.5261 13.4286 33.3604 13.4286ZM15.6395 13.4286C17.4739 13.4286 18.961 14.9156 18.961 16.75C18.961 18.5844 17.4739 20.0714 15.6395 20.0714C13.8052 20.0714 12.3181 18.5844 12.3181 16.75C12.3181 14.9156 13.8052 13.4286 15.6395 13.4286ZM24.5 13.9822C23.2771 13.9822 22.2857 14.9735 22.2857 16.1964C22.2857 17.4194 23.2771 18.4107 24.5 18.4107C25.7229 18.4107 26.7143 17.4194 26.7143 16.1964C26.7143 14.9735 25.7229 13.9822 24.5 13.9822ZM33.3604 15.0893C32.4433 15.0893 31.6997 15.8328 31.6997 16.75C31.6997 17.6672 32.4433 18.4107 33.3604 18.4107C34.2776 18.4107 35.0212 17.6672 35.0212 16.75C35.0212 15.8328 34.2776 15.0893 33.3604 15.0893ZM15.6395 15.0893C14.7224 15.0893 13.9788 15.8328 13.9788 16.75C13.9788 17.6672 14.7224 18.4107 15.6395 18.4107C16.5567 18.4107 17.3003 17.6672 17.3003 16.75C17.3003 15.8328 16.5567 15.0893 15.6395 15.0893Z" fill="var(--fill-0, #004B42)"/>
</g>
</g>
</svg>
