<svg preserveAspectRatio="none" width="100%" height="100%" overflow="visible" style="display: block;" viewBox="0 0 50 50" fill="none" xmlns="http://www.w3.org/2000/svg">
<g id="Group">
<circle id="Ellipse" cx="25" cy="25" r="25" fill="var(--fill-0, white)"/>
<g id="Frame" clip-path="url(#clip0_0_65)">
<path id="Vector" d="M15.9784 20.1339C15.5828 20.1339 15.2624 20.4543 15.2624 20.8491C15.2624 21.2447 15.5828 21.5651 15.9784 21.5651C16.3732 21.5651 16.6936 21.2447 16.6936 20.8491C16.6936 20.4543 16.3732 20.1339 15.9784 20.1339Z" fill="var(--fill-0, black)"/>
<path id="Vector_2" d="M15.9784 20.1339C15.5828 20.1339 15.2624 20.4543 15.2624 20.8491C15.2624 21.2447 15.5828 21.5651 15.9784 21.5651C16.3732 21.5651 16.6936 21.2447 16.6936 20.8491C16.6936 20.4543 16.3732 20.1339 15.9784 20.1339Z" fill="var(--fill-0, black)"/>
<g id="Group_2">
<path id="Vector_3" d="M35.5075 15.3573C25.5323 14.7997 20.3249 14.6636 20.3249 14.6636C15.9526 14.6636 12.385 18.1745 12.2926 22.5254C12.2789 22.5806 12.1141 24.7621 11.8095 25.5218C11.31 26.7652 10.5475 27.537 9.81863 27.537C9.19011 27.537 8.52221 26.9551 8.03269 25.9789C7.90726 25.7295 7.65575 25.5747 7.37696 25.5747H5.73509C5.51438 25.5747 5.30724 25.6722 5.16746 25.8427C5.02768 26.0118 4.97178 26.2333 5.0134 26.449C5.2936 27.8895 5.99883 29.2003 6.99931 30.142C8.03846 31.1195 9.52915 31.6362 10.8801 31.6362C12.2912 31.5946 13.6234 31.0564 14.7429 30.0703C15.6989 29.2282 16.4435 28.0844 16.8807 26.8023C16.9244 26.8045 17.2282 26.8417 17.7199 26.7299L18.4358 32.9907C18.4773 33.3526 18.7833 33.6264 19.1474 33.6264H21.4744L21.5618 34.6792C21.5926 35.0504 21.903 35.3364 22.2756 35.3364H25.5565C25.9335 35.3364 26.2459 35.0447 26.2718 34.6685L26.5799 30.1291C28.0147 30.3606 29.4244 30.4767 30.8355 30.4767C31.4016 30.4767 31.9678 30.458 32.5361 30.4208L32.878 33.0036C32.9253 33.3598 33.2291 33.6264 33.5889 33.6264H35.8772L36.0048 34.7043C36.0478 35.0648 36.3538 35.3364 36.7164 35.3364H40.2832C40.6795 35.3364 40.9998 35.0153 40.9998 34.6197V21.0784C41 17.9947 38.5856 15.5293 35.5075 15.3573ZM34.2168 32.1932L33.9652 30.2898C34.4575 30.231 34.9556 30.1565 35.4544 30.0698L35.7067 32.1933L34.2168 32.1932ZM39.5666 33.9031H37.3536L36.5194 26.8805C36.4728 26.4878 36.1159 26.2069 35.7232 26.2534C35.3297 26.3 35.0495 26.6569 35.096 27.0496L35.2852 28.6457C34.5471 28.7754 33.8118 28.875 33.093 28.9402C30.9494 29.1344 28.8431 29.0534 26.6724 28.6922L26.7727 27.008C26.7964 26.6124 26.4953 26.2735 26.1005 26.2498C25.7063 26.2261 25.3659 26.5272 25.3422 26.922L25.2053 29.2089L24.8871 33.903H22.9356L22.3537 27.615C22.3215 27.2208 21.9753 26.9269 21.5804 26.9599C21.1863 26.9922 20.8931 27.3383 20.9254 27.7332L21.3454 32.193H19.7866L19.0398 25.6599C18.9947 25.2665 18.6407 24.9841 18.2465 25.0293C18.1462 25.0407 18.0537 25.0723 17.9713 25.1196C17.5377 25.3647 17.0332 25.4342 16.5487 25.3174C16.548 25.3174 16.5473 25.3174 16.5473 25.3174C16.1632 25.2192 15.7733 25.4507 15.6752 25.8341C15.3555 27.0861 14.6876 28.2084 13.7954 28.9946C12.939 29.7499 11.9284 30.1648 10.8649 30.2021C10.86 30.2028 10.8549 30.2028 10.8499 30.2028C9.87523 30.2028 8.77161 29.7922 8.00618 29.0719C7.43356 28.533 6.98349 27.8314 6.69753 27.0437H6.94116C7.68718 28.2972 8.71852 29.0059 9.81856 29.0059C11.1802 29.0059 12.4344 27.908 13.1725 26.0691C13.5481 25.1352 13.7351 22.6026 13.7251 22.5546C13.8025 18.9806 16.7329 16.0967 20.3248 16.0967C20.3248 16.0967 22.7837 16.1419 22.7887 16.1426C23.1477 16.1605 23.4853 16.278 23.7913 16.4916L24.4305 16.9395C25.3257 17.5644 25.8782 18.5484 25.9463 19.6384C26.0136 20.7285 25.588 21.7741 24.7774 22.5065L22.2483 24.7906C21.9315 25.0765 21.5115 25.1389 21.1252 24.9583C20.7382 24.7776 20.5175 24.4157 20.5333 23.9894C20.534 23.975 20.534 23.96 20.534 23.9456L20.5053 22.6822C20.4959 22.2866 20.1699 21.9741 19.7721 21.982C19.3766 21.9906 19.0634 22.3189 19.072 22.7145L19.1007 23.9586C19.072 24.9548 19.6131 25.8341 20.5189 26.2569C20.8601 26.4168 21.2177 26.4949 21.5717 26.4949C22.1623 26.4949 22.7413 26.2763 23.2086 25.8542L25.7377 23.5702C26.8743 22.5439 27.4721 21.0783 27.3767 19.5497C27.2986 18.3041 26.7697 17.1575 25.8975 16.301L35.4385 16.7884C35.4407 16.7884 35.4435 16.7891 35.4464 16.7891C37.7569 16.8815 39.5665 18.7656 39.5665 21.0784V33.9031H39.5666Z" fill="var(--fill-0, #004B42)"/>
<path id="Vector_4" d="M15.9784 20.1339C15.5828 20.1339 15.2625 20.4543 15.2625 20.8491C15.2625 21.2447 15.5828 21.565 15.9784 21.565C16.3733 21.565 16.6936 21.2447 16.6936 20.8491C16.6936 20.4543 16.3733 20.1339 15.9784 20.1339Z" fill="var(--fill-0, #004B42)"/>
</g>
<path id="Vector_5" d="M10.8808 31.6363C10.9438 31.6363 10.8222 31.6506 10.8808 31.6363Z" fill="var(--fill-0, black)"/>
</g>
</g>
<defs>
<clipPath id="clip0_0_65">
<rect width="36" height="36" fill="white" transform="translate(5 7)"/>
</clipPath>
</defs>
</svg>
