<svg preserveAspectRatio="none" width="100%" height="100%" overflow="visible" style="display: block;" viewBox="0 0 12.6697 11.625" fill="none" xmlns="http://www.w3.org/2000/svg">
<g id="Group">
<path id="Vector" d="M6.33486 11.2902L1.39166 6.41257C0.715003 5.7449 0.334862 4.83934 0.334862 3.8951C0.334862 2.95087 0.715003 2.04531 1.39166 1.37763C2.06831 0.709958 2.98605 0.334862 3.94299 0.334862C4.89992 0.334862 5.81766 0.709958 6.49432 1.37763L6.33486 1.53497L6.1754 1.37763C6.85206 0.709958 7.7698 0.334862 8.72674 0.334862C9.68367 0.334862 10.6014 0.709958 11.2781 1.37763C11.9547 2.04531 12.3349 2.95087 12.3349 3.8951C12.3349 4.83934 11.9547 5.7449 11.2781 6.41257L6.33486 11.2902Z" stroke="var(--stroke-0, #52524D)" stroke-width="0.669724" stroke-linecap="round" stroke-linejoin="round"/>
<path id="Vector_2" d="M3.54433 4.60304H5.13892L6.09567 2.63627L7.53079 6.56981L8.48754 4.60304H9.92266" stroke="var(--stroke-0, #52524D)" stroke-width="0.669724" stroke-linecap="round" stroke-linejoin="round"/>
</g>
</svg>
