<svg preserveAspectRatio="none" width="100%" height="100%" overflow="visible" style="display: block;" viewBox="0 0 8.7 11.8829" fill="none" xmlns="http://www.w3.org/2000/svg">
<g id="Group">
<path id="Vector" d="M4.35 11.5329C4.35 11.5329 0.35 7.91491 0.35 4.29691C0.35 3.25013 0.771427 2.24621 1.52157 1.50602C2.27172 0.765834 3.28913 0.35 4.35 0.35C5.41087 0.35 6.42828 0.765834 7.17843 1.50602C7.92857 2.24621 8.35 3.25013 8.35 4.29691C8.35 7.91491 4.35 11.5329 4.35 11.5329Z" stroke="var(--stroke-0, #52524D)" stroke-width="0.7" stroke-linecap="round" stroke-linejoin="round"/>
<path id="Vector_2" d="M4.35008 5.61257C5.08646 5.61257 5.68341 5.02354 5.68341 4.29694C5.68341 3.57033 5.08646 2.9813 4.35008 2.9813C3.6137 2.9813 3.01675 3.57033 3.01675 4.29694C3.01675 5.02354 3.6137 5.61257 4.35008 5.61257Z" stroke="var(--stroke-0, #52524D)" stroke-width="0.7" stroke-linecap="round" stroke-linejoin="round"/>
</g>
</svg>
